<svg xmlns="http://www.w3.org/2000/svg" viewBox="0 0 28 28" class="mp-icon group-icon replaced-svg"><path fill="#FFFFFF" d="M26 18v10h-6v-8c0 0 2 0 2-2s0-10 0-10 0-0.4-0.2-1H26c2 0 2 2 2 2s0 5 0 7S26 18 26 18zM22 6c-0.5 0-1-0.1-1.4-0.4 -0.1 0-0.1-0.1-0.2-0.1C19.6 5 19 4.1 19 3c0-1.7 1.3-3 3-3s3 1.3 3 3S23.7 6 22 6zM20 9c0 0 0 5 0 7s-2 2-2 2v10h-8V18c0 0-2 0-2-2V9c0-2 2-2 2-2s7.5 0 8 0C20 7 20 9 20 9zM14 6c-1.7 0-3-1.3-3-3s1.3-3 3-3c1.7 0 3 1.3 3 3S15.7 6 14 6zM7.6 5.5C7.6 5.6 7.5 5.6 7.4 5.6 7 5.9 6.5 6 6 6 4.3 6 3 4.7 3 3s1.3-3 3-3 3 1.3 3 3C9 4.1 8.4 5 7.6 5.5zM6 8c0 0 0 8 0 10s2 2 2 2v8H2V18c0 0-2 0-2-2V9c0-2 2-2 2-2s2.2 0 4.2 0C6 7.6 6 8 6 8z"></path></svg>