<svg xmlns="http://www.w3.org/2000/svg" viewBox="0 0 40.8 32.9" class="mp-icon series-icon replaced-svg"><path fill="#65635B" d="M5.9 6.2l7.1 2.4c0.6 0.3 3.3 1.3 8.2 0.1 6.2-1.5 19.6-4.2 19.7-4.2l-0.5-2.5c0 0 0 0-0.1 0L27.5 0.1c-1.4-0.2-3.7-0.1-5.1 0.1L5.4 3.5C3.2 3.4 1.1 4.8 0.4 7c-0.4 1.3-0.3 2.6 0.3 3.8 0.3 0.6 0.7 1.1 1.3 1.5 -0.8 0.6-1.4 1.4-1.7 2.4 -0.4 1.3-0.3 2.6 0.3 3.8 0.3 0.6 0.8 1.2 1.3 1.6 -0.8 0.6-1.3 1.4-1.7 2.4 -0.4 1.3-0.3 2.6 0.3 3.8 0.6 1.2 1.7 2.1 2.9 2.5l12.3 3.9c0.7 0.2 1.8 0.3 2.5 0.1l21.6-4.9c0 0-0.1-0.6-0.3-1.2 -0.2-0.7-0.8-1.1-1.5-1l-19.6 4.5c-0.7 0.2-1.8 0.1-2.5-0.1l-11.6-3.7c-0.6-0.2-1.1-0.6-1.4-1.2 -0.3-0.6-0.4-1.2-0.2-1.9 0.4-1.3 1.8-2 3.1-1.6 0 0 7.1 2.2 10 3.2 0.7 0.2 1.8 0.3 2.5 0.1l21.6-4.9c0 0-0.1-0.6-0.3-1.2 -0.2-0.7-0.8-1.1-1.5-1l-19.6 4.5c-0.7 0.2-1.8 0.1-2.5-0.1L4.3 18.5c-0.6-0.2-1.1-0.6-1.4-1.2 -0.3-0.6-0.4-1.2-0.2-1.9 0.4-1.3 1.8-2 3.1-1.6 0 0 7.2 2.3 10.1 3.2 0.7 0.2 1.8 0.3 2.5 0.1l21.6-4.9c0 0-0.1-0.6-0.3-1.2 -0.2-0.7-0.8-1.1-1.5-1l-19.6 4.5c-0.7 0.2-1.8 0.1-2.5-0.1L4.4 10.8c-0.6-0.2-1.1-0.6-1.4-1.2C2.7 9 2.6 8.4 2.8 7.7 3.2 6.5 4.6 5.8 5.9 6.2z"></path></svg>