<?xml version="1.0" standalone="no"?>
<!DOCTYPE svg PUBLIC "-//W3C//DTD SVG 20010904//EN"
 "http://www.w3.org/TR/2001/REC-SVG-20010904/DTD/svg10.dtd">
<svg version="1.0" xmlns="http://www.w3.org/2000/svg"
 width="768.000000pt" height="1024.000000pt" viewBox="0 0 768.000000 1024.000000"
 preserveAspectRatio="xMidYMid meet">

<g transform="translate(0.000000,1024.000000) scale(0.100000,-0.100000)"
fill="#FFFFFF" stroke="none">
<path d="M945 7793 c-68 -10 -185 -44 -254 -72 -144 -60 -263 -143 -386 -272
-133 -139 -214 -279 -272 -465 -25 -84 -27 -100 -27 -279 0 -179 2 -195 27
-279 35 -113 81 -211 142 -306 39 -61 387 -414 1854 -1883 l1806 -1807 1801
1802 c1953 1955 1869 1866 1949 2057 70 165 80 217 80 416 0 169 -2 186 -28
275 -56 185 -138 329 -267 463 -215 226 -454 341 -740 354 -246 11 -448 -47
-660 -190 -56 -38 -332 -308 -1105 -1079 l-1030 -1028 -970 971 c-534 534
-1008 1005 -1055 1046 -141 125 -289 205 -465 253 -60 17 -115 23 -225 25 -80
2 -158 1 -175 -2z"/>
</g>
</svg>
