<svg fill='#fff' xmlns="http://www.w3.org/2000/svg" viewBox="0 0 26.7 31.7" class="mp-icon user-icon replaced-svg"><path d="M26.3 31.7c-1.4-0.7-4.3-2.4-4.3-4.7l0 0V21.3c-1.5-0.2-2-0.8-2-0.8 -4.5-2.2-4.2 1.2-4.2 1.2v2.8L14 28h-1l-2-4h0v-2.3c0 0 0.4-3.4-4.2-1.2 0 0-0.5 0.6-2 0.8v6.4c-0.4 0.8-1.5 2.3-4.2 4C0.2 31.7 0 31.7 0 31.7V17.8c3-0.5 4.3-1.5 4.3-1.5 1.7-0.8 3.2-1.2 4.4-1.3C7.1 13.5 6 11.1 6 8.5c0-4.7 3.4-8.5 7.5-8.5 4.1 0 7.5 3.8 7.5 8.5 0 2.6-1.1 5-2.7 6.6 1.2 0.1 2.5 0.5 4.2 1.3 0 0 1.3 1 4.3 1.5V31.7C26.7 31.7 26.6 31.7 26.3 31.7z"></path></svg>