<svg xmlns="http://www.w3.org/2000/svg" width="612" height="403" viewBox="0 0 612 402.6" class="mp-icon down-on-icon replaced-svg"><path fill="#872728" d="M495.8 401.3c-2.8 0.8-7.1 1.3-11.2 1.3l-347.7-0.3C60.5 399.6 0 337 0 259.8c0-73.5 56.8-134.9 128.9-142C161.6 45.9 232.3 0 312 0c86.2 0 162.9 55.6 190.4 136.5C565.6 148 612 202.9 612 268.4 612 335.2 562.1 392.4 495.8 401.3zM434.7 150.7l-23.1-23.1c-3.2-3.2-7-4.8-11.5-4.8 -4.5 0-8.4 1.6-11.5 4.8L277.3 239.3l-49.9-50.2c-3.2-3.2-7-4.8-11.5-4.8 -4.5 0-8.4 1.6-11.5 4.8l-23.1 23.1c-3.2 3.2-4.8 7-4.8 11.6 0 4.5 1.6 8.4 4.8 11.6l61.4 61.6 23.1 23.1c3.2 3.2 7 4.8 11.5 4.8 4.5 0 8.4-1.6 11.5-4.8l23.1-23.1 122.8-123.1c3.2-3.2 4.8-7 4.8-11.6C439.5 157.7 437.9 153.9 434.7 150.7z"></path></svg>